<?xml version="1.0" encoding="UTF-8" standalone="no"?>
<!DOCTYPE svg PUBLIC "-//W3C//DTD SVG 1.1//EN" "http://www.w3.org/Graphics/SVG/1.1/DTD/svg11.dtd">
<svg width="100%" height="100%" viewBox="0 0 1200 1306" version="1.1" xmlns="http://www.w3.org/2000/svg" xmlns:xlink="http://www.w3.org/1999/xlink" xml:space="preserve" xmlns:serif="http://www.serif.com/" style="fill-rule:evenodd;clip-rule:evenodd;stroke-linecap:round;stroke-linejoin:round;stroke-miterlimit:1.5;">
    <g transform="matrix(1,0,0,1,-1399.98,-300)">
        <g transform="matrix(0.999655,0,0,1,0.46543,0)">
            <g transform="matrix(1.09906,0,0,0.883018,591.49,-13.6949)">
                <rect x="735.64" y="355.253" width="1091.85" height="1479.02" style="fill:rgb(245,244,244);"/>
            </g>
            <g transform="matrix(1.21443,0,0,1.04097,-433.352,-55.4447)">
                <path d="M2456.82,1496.71C2456.82,1483.46 2447.6,1472.7 2436.23,1472.7L1571.64,1472.7C1560.28,1472.7 1551.05,1483.46 1551.05,1496.71L1551.05,1544.74C1551.05,1558 1560.28,1568.76 1571.64,1568.76L2436.23,1568.76C2447.6,1568.76 2456.82,1558 2456.82,1544.74L2456.82,1496.71Z" style="fill:rgb(206,206,206);"/>
            </g>
            <g transform="matrix(1,0,0,0.887129,-21.7932,159.495)">
                <path d="M1513.39,1513.99L1513.13,1570.35" style="fill:none;stroke:black;stroke-width:1.06px;"/>
            </g>
            <g transform="matrix(0.999461,0,0,0.845902,0.0658207,32.7516)">
                <rect x="1400.71" y="315.933" width="1200.65" height="771.957" style="fill:rgb(20,126,251);"/>
            </g>
            <g id="_915591.svg" serif:id="915591.svg" transform="matrix(1,0,0,1,2000.23,626.603)">
                <g transform="matrix(1,0,0,1,-256,-226.831)">
                    <g transform="matrix(0.1,0,0,-0.1,0,482.662)">
                        <path d="M1234,4814C1044,4744 1023,4460 1201,4369L1240,4349L1238,4012L1235,3675L635,3665L569,3634C454,3579 363,3463 340,3340C335,3311 330,3245 330,3194L330,3102L189,3098C49,3095 48,3095 24,3067L0,3039L0,2525C0,2170 3,2003 11,1987C29,1948 61,1940 200,1940L328,1940L332,1648C335,1376 337,1351 357,1302C388,1225 450,1149 515,1105C625,1033 587,1036 1362,1032L2059,1029L2062,684L2065,338L2121,290L2999,290L3055,338L3058,684L3061,1029L3758,1032C4533,1036 4495,1033 4605,1105C4670,1149 4732,1225 4763,1302C4783,1351 4785,1376 4788,1648L4792,1940L4920,1940C5059,1940 5091,1948 5109,1987C5117,2003 5120,2170 5120,2525L5120,3039L5096,3067C5072,3095 5071,3095 4931,3098L4790,3102L4790,3194C4790,3245 4785,3311 4780,3340C4757,3463 4666,3579 4551,3634L4485,3665L1405,3675L1402,4011L1400,4347L1424,4358C1437,4364 1464,4383 1484,4401C1648,4545 1555,4813 1337,4826C1298,4828 1260,4824 1234,4814ZM1378,4637C1416,4602 1406,4539 1358,4514C1280,4473 1206,4564 1260,4633C1292,4673 1335,4675 1378,4637ZM4485,3483C4507,3471 4539,3447 4557,3428C4624,3359 4620,3421 4620,2353C4620,1266 4625,1345 4545,1267C4470,1194 4635,1199 2545,1202C789,1205 663,1206 634,1222C588,1247 540,1299 519,1345C501,1383 500,1437 500,2353C500,3421 496,3359 563,3428C596,3463 636,3487 680,3501C694,3505 1546,3508 2575,3507L4445,3505L4485,3483ZM330,2930L330,2110L170,2110L170,2930L330,2930ZM4950,2930L4950,2110L4790,2110L4790,2930L4950,2930ZM2890,1030L2890,450L2230,450L2230,1030L2890,1030Z" style="fill:white;fill-rule:nonzero;"/>
                        <path d="M1273,2991C1086,2927 966,2727 999,2537C1057,2205 1459,2075 1694,2314C1911,2533 1821,2894 1526,2993C1461,3015 1341,3014 1273,2991ZM1476,2835C1687,2772 1711,2481 1513,2384C1383,2320 1236,2373 1180,2503C1130,2617 1179,2762 1285,2817C1353,2853 1402,2857 1476,2835Z" style="fill:white;fill-rule:nonzero;"/>
                        <path d="M3589,2992C3295,2884 3210,2532 3426,2314C3661,2075 4063,2205 4121,2537C4155,2732 4027,2936 3834,2995C3769,3015 3647,3013 3589,2992ZM3826,2822C3905,2781 3951,2710 3958,2620C3968,2472 3866,2359 3721,2357C3535,2356 3414,2544 3496,2708C3557,2831 3707,2883 3826,2822Z" style="fill:white;fill-rule:nonzero;"/>
                        <path d="M2030,2177C2017,2170 2000,2153 1992,2140C1963,2084 2007,1900 2075,1795C2230,1553 2543,1463 2805,1584C2993,1671 3130,1874 3134,2072C3135,2153 3114,2184 3055,2184C3001,2184 2980,2157 2969,2069C2946,1876 2803,1726 2620,1700C2387,1667 2180,1830 2151,2069C2141,2148 2125,2174 2080,2184C2066,2188 2044,2184 2030,2177Z" style="fill:white;fill-rule:nonzero;"/>
                    </g>
                </g>
            </g>
            <g id="Speech_Bubble_-89036-_-_The_Noun_Project.svg" serif:id="Speech_Bubble_(89036)_-_The_Noun_Project.svg" transform="matrix(1.86313,0,0,1.86313,2000.6,428.535)">
                <g transform="matrix(1,0,0,1,-50,-50)">
                    <path d="M81.7,21.7L18.2,21.7C12.9,21.7 8.6,26 8.6,31.3L8.6,69.4C8.6,74.7 12.9,79 18.2,79L24.9,79L30.8,86.9C31.2,87.4 32.5,88.9 34.5,88.9C35.4,88.9 36.8,88.5 38.1,86.8L44,79L81.7,79C87,79 91.3,74.7 91.3,69.4L91.3,31.4C91.3,26.1 87,21.7 81.7,21.7ZM87.6,69.5C87.6,72.8 84.9,75.4 81.7,75.4L43,75.4C42.4,75.4 41.9,75.7 41.5,76.1L35.1,84.7C34.7,85.2 34.5,85.3 34.5,85.3C34.4,85.3 34,85 33.8,84.7L27.4,76.1C27.1,75.6 26.5,75.4 25.9,75.4L18.3,75.4C15,75.4 12.4,72.7 12.4,69.5L12.4,31.4C12.4,28.1 15.1,25.5 18.3,25.5L81.8,25.5C85.1,25.5 87.7,28.2 87.7,31.4L87.7,69.5L87.6,69.5ZM76,50.8C76,51.8 75.2,52.6 74.2,52.6L25.5,52.6C24.5,52.6 23.7,51.8 23.7,50.8C23.7,49.8 24.5,49 25.5,49L74.2,49C75.2,48.9 76,49.7 76,50.8ZM76,61.9C76,62.9 75.2,63.7 74.2,63.7L25.5,63.7C24.5,63.7 23.7,62.9 23.7,61.9C23.7,60.9 24.5,60.1 25.5,60.1L74.2,60.1C75.2,60 76,60.8 76,61.9ZM23.6,39.8C23.6,38.8 24.4,38 25.4,38L54.7,38C55.7,38 56.5,38.8 56.5,39.8C56.5,40.8 55.7,41.6 54.7,41.6L25.5,41.6C24.5,41.7 23.6,40.8 23.6,39.8Z" style="fill:white;fill-rule:nonzero;"/>
                </g>
            </g>
            <g transform="matrix(1.34959,0,0,0.992727,-864.524,-57.6785)">
                <path d="M2518.94,1098.16C2518.94,1080.1 2508.14,1065.43 2494.85,1065.43L2172.54,1065.43C2159.25,1065.43 2148.45,1080.1 2148.45,1098.16L2148.45,1163.64C2148.45,1181.71 2159.25,1196.38 2172.54,1196.38L2494.85,1196.38C2508.14,1196.38 2518.94,1181.71 2518.94,1163.64L2518.94,1098.16Z" style="fill:rgb(25,130,252);"/>
            </g>
            <g transform="matrix(1.34959,0,0,0.763636,-864.524,486.401)">
                <path d="M2518.94,1098.16C2518.94,1080.1 2510.63,1065.43 2500.41,1065.43L2166.98,1065.43C2156.76,1065.43 2148.45,1080.1 2148.45,1098.16L2148.45,1163.64C2148.45,1181.71 2156.76,1196.38 2166.98,1196.38L2500.41,1196.38C2510.63,1196.38 2518.94,1181.71 2518.94,1163.64L2518.94,1098.16Z" style="fill:rgb(25,130,252);"/>
            </g>
            <g transform="matrix(1.3986,0,0,0.842065,-585.158,107.88)">
                <path d="M1823.36,1270.24C1823.36,1248.93 1812.95,1231.64 1800.12,1231.64L1489.11,1231.64C1476.28,1231.64 1465.86,1248.93 1465.86,1270.24L1465.86,1347.43C1465.86,1368.73 1476.28,1386.02 1489.11,1386.02L1800.12,1386.02C1812.95,1386.02 1823.36,1368.73 1823.36,1347.43L1823.36,1270.24Z" style="fill:rgb(142,142,147);"/>
            </g>
            <path d="M2073.26,1032.65L2500.37,1032.65" style="fill:none;stroke:white;stroke-width:10px;"/>
            <g transform="matrix(0.999753,0,0,1,0.51287,0)">
                <path d="M2073.26,1032.65L2500.37,1032.65" style="fill:none;stroke:white;stroke-width:10px;"/>
            </g>
            <g transform="matrix(0.999753,0,0,1,0.553941,33.1548)">
                <path d="M2073.26,1032.65L2500.37,1032.65" style="fill:none;stroke:white;stroke-width:10px;"/>
            </g>
            <g transform="matrix(0.585335,0,0,1,859.748,65.9821)">
                <path d="M2073.26,1032.65L2500.37,1032.65" style="fill:none;stroke:white;stroke-width:12.21px;"/>
            </g>
            <g transform="matrix(0.999753,0,0,1,0.51287,299.859)">
                <path d="M2073.26,1032.65L2500.37,1032.65" style="fill:none;stroke:white;stroke-width:10px;"/>
            </g>
            <g transform="matrix(0.999753,0,0,1,0.553941,333.013)">
                <path d="M2073.26,1032.65L2500.37,1032.65" style="fill:none;stroke:white;stroke-width:10px;"/>
            </g>
            <g transform="matrix(0.999753,0,0,1,-568.929,142.15)">
                <path d="M2073.26,1032.65L2500.37,1032.65" style="fill:none;stroke:white;stroke-width:10px;"/>
            </g>
            <g transform="matrix(0.999753,0,0,1,-568.929,175.818)">
                <path d="M2073.26,1032.65L2500.37,1032.65" style="fill:none;stroke:white;stroke-width:10px;"/>
            </g>
            <g transform="matrix(0.187987,0,0,1,1114.07,210.662)">
                <path d="M2073.26,1032.65L2500.37,1032.65" style="fill:none;stroke:white;stroke-width:13.9px;"/>
            </g>
        </g>
    </g>
</svg>
